<?xml version="1.0"?>
<svg xmlns="http://www.w3.org/2000/svg" viewBox="0 0 26 26" enable-background="new 0 0 26 26">
    <path d="M 12.5 0 C 12.1 1.6 11 2.8 11 4 C 11 5.1 11.9 6 13 6 C 12.4 6 12 5.6 12 5 C 12 4.4 13 3 13 3 C 13 3 14 4.4 14 5 C 14 5.6 13.6 6 13 6 C 14.1 6 15 5.1 15 4 C 15 1.5 12.5 0 12.5 0 z M 14.96875 5.96875 A 1.0083877 1.0083877 0 0 0 14.8125 6 A 1.0001 1.0001 0 0 0 14.75 6.03125 L 10.75 7.03125 A 1.0004882 1.0004882 0 0 0 11 9 L 11 14 L 15 14 L 15 8.03125 L 15.25 7.96875 A 1.0083877 1.0083877 0 0 0 14.96875 5.96875 z M 5 15 C 3.3 15 2 16.3 2 18 L 2 18.5 C 2 19.3 3.6 20 5.5 20 C 7.8 20 9 18.5 9 18.5 C 9 18.5 10.3 20 13 20 C 15.7 20 17 18.5 17 18.5 C 17 18.5 18.3 20 20.5 20 C 22.4 20 24 19.3 24 18.5 L 24 18 C 24 16.3 22.7 15 21 15 L 5 15 z M 9 19.8125 C 8.3 20.4125 7.1 21 5.5 21 L 4.6875 21 C 3.5875 20.9 2.6 20.5875 2 20.1875 L 2 24 L 0 24 C 0 25.1 0.9 26 2 26 L 24 26 C 25.1 26 26 25.1 26 24 L 24 24 L 24 20.09375 C 23.3 20.59375 22.4125 20.9 21.3125 21 L 20.5 21 C 18.9 21 17.7 20.3125 17 19.8125 C 16.2 20.3125 14.9 21 13 21 C 11.1 21 9.8 20.4125 9 19.8125 z"/>
</svg>
